<svg width="64" height="42" viewBox="0 0 64 42" fill="none" xmlns="http://www.w3.org/2000/svg">
<path d="M10.7522 8.7845L8.43158 17.8865L6.08517 8.7845H0L4.84751 23.327H11.9899L16.8374 8.7845H10.7522Z" fill="#0F172A"/>
<path d="M42.0779 10.3574C41.0637 9.24003 39.6284 8.68137 37.7719 8.68137C36.7749 8.68137 35.8638 8.93062 35.0387 9.42912C34.2136 9.91043 33.5346 10.5293 33.0017 11.2856C32.5204 10.4605 31.8758 9.82448 31.0679 9.37755C30.2599 8.91343 29.3317 8.68137 28.2831 8.68137C27.3205 8.68137 26.4782 8.87045 25.7562 9.24863C25.0515 9.6268 24.4928 10.1253 24.0802 10.7441V8.7845H18.356V23.327H24.0802V15.6174C24.0802 14.9986 24.2607 14.5173 24.6217 14.1735C24.9827 13.8125 25.4812 13.632 26.1172 13.632C26.736 13.632 27.226 13.8125 27.5869 14.1735C27.9651 14.5173 28.1542 14.9986 28.1542 15.6174V23.327H33.8526V15.6174C33.8526 14.9986 34.0331 14.5173 34.3941 14.1735C34.7551 13.8125 35.2536 13.632 35.8896 13.632C36.5084 13.632 36.9983 13.8125 37.3593 14.1735C37.7375 14.5173 37.9266 14.9986 37.9266 15.6174V23.0047H37.9022V26.5114H36.0973V31.2816H37.9022V35.0977C37.9022 39.0686 39.8962 41.054 43.8842 41.054H46.0501V36.1807H44.6836C44.3054 36.1807 44.0303 36.1033 43.8585 35.9486C43.7037 35.7939 43.6264 35.5447 43.6264 35.2009V31.2816H45.9986V26.5114H43.6264L43.625 14.8955C43.625 12.9874 43.1093 11.4747 42.0779 10.3574Z" fill="#0F172A"/>
<path fill-rule="evenodd" clip-rule="evenodd" d="M8.74099 26.924C8.0534 26.5286 7.23689 26.3309 6.29145 26.3309C5.15693 26.3309 4.13414 26.6318 3.22308 27.2334C2.31202 27.8179 1.59005 28.6774 1.05717 29.8119C0.541477 30.9292 0.283631 32.2528 0.283631 33.7827C0.283631 35.3126 0.541477 36.6448 1.05717 37.7793C1.59005 38.8967 2.31202 39.7561 3.22308 40.3578C4.13414 40.9422 5.15693 41.2345 6.29145 41.2345C7.23689 41.2345 8.0534 41.0454 8.74099 40.6672C9.42858 40.2718 9.95287 39.739 10.3139 39.0686V41.054H16.0123V26.5114H10.3139V28.4969C9.95287 27.8265 9.42858 27.3022 8.74099 26.924ZM6.67822 31.9778C7.07358 31.548 7.58068 31.3332 8.19951 31.3332C8.81835 31.3332 9.32544 31.548 9.72081 31.9778C10.1162 32.4075 10.3139 33.0092 10.3139 33.7827C10.3139 34.5562 10.1162 35.1579 9.72081 35.5876C9.32544 36.0174 8.81835 36.2323 8.19951 36.2323C7.58068 36.2323 7.07358 36.0174 6.67822 35.5876C6.28286 35.1579 6.08517 34.5562 6.08517 33.7827C6.08517 33.0092 6.28286 32.4075 6.67822 31.9778Z" fill="#0F172A"/>
<path d="M28.4711 41.054H34.1953V26.5114H28.4711V34.221C28.4711 34.9086 28.2906 35.4587 27.9296 35.8713C27.5686 36.2666 27.0701 36.4643 26.4341 36.4643C25.8153 36.4643 25.3167 36.2666 24.9386 35.8713C24.5776 35.4587 24.3971 34.9086 24.3971 34.221V26.5114H18.6987V34.943C18.6987 36.8511 19.1628 38.3638 20.0911 39.4811C21.0365 40.5984 22.3429 41.1571 24.0103 41.1571C25.0417 41.1571 25.927 40.9422 26.6661 40.5125C27.4225 40.0828 28.0241 39.5241 28.4711 38.8365V41.054Z" fill="#0F172A"/>
<path d="M62.5277 28.0843C61.5995 26.967 60.3017 26.4083 58.6343 26.4083C57.6029 26.4083 56.709 26.6232 55.9527 27.0529C55.2135 27.4827 54.6204 28.0413 54.1735 28.7289V21.9733H48.4493V41.054H54.1735V33.3444C54.1735 32.6568 54.354 32.1153 54.715 31.7199C55.076 31.3074 55.5745 31.1011 56.2105 31.1011C56.8293 31.1011 57.3192 31.3074 57.6802 31.7199C58.0584 32.1153 58.2475 32.6568 58.2475 33.3444V41.054H63.9459V32.6224C63.9459 30.7143 63.4732 29.2016 62.5277 28.0843Z" fill="#0F172A"/>
<path d="M52.9487 1.2345C50.4804 1.2345 48.4722 3.33828 48.4722 5.92416V8.73796H47.5769C47.102 8.73796 46.6466 8.9356 46.3108 9.28739C45.975 9.63918 45.7863 10.1163 45.7863 10.6138V18.1173C45.7863 18.6148 45.975 19.0919 46.3108 19.4437C46.6466 19.7955 47.102 19.9932 47.5769 19.9932H58.3205C58.7954 19.9932 59.2509 19.7955 59.5867 19.4437C59.9225 19.0919 60.1111 18.6148 60.1111 18.1173V10.6138C60.1111 10.1163 59.9225 9.63918 59.5867 9.28739C59.2509 8.9356 58.7954 8.73796 58.3205 8.73796H57.4252V5.92416C57.4252 3.33828 55.4171 1.2345 52.9487 1.2345ZM50.2628 5.92416C50.2628 4.37282 51.4679 3.11036 52.9487 3.11036C54.4295 3.11036 55.6346 4.37282 55.6346 5.92416V8.73796H50.2628V5.92416ZM53.844 15.9816V18.1173H52.0534V15.9816C51.7404 15.7938 51.4891 15.5111 51.3325 15.1706C51.176 14.8302 51.1217 14.4481 51.1766 14.0746C51.2316 13.7011 51.3933 13.3539 51.6405 13.0787C51.8876 12.8034 52.2086 12.6131 52.5611 12.5328C52.8229 12.4722 53.0943 12.4739 53.3554 12.5378C53.6165 12.6017 53.8606 12.7262 54.0696 12.9021C54.2787 13.078 54.4474 13.3008 54.5633 13.5541C54.6792 13.8074 54.7393 14.0847 54.7393 14.3656C54.7388 14.6936 54.6558 15.0157 54.4986 15.2994C54.3414 15.5831 54.1156 15.8184 53.844 15.9816Z" fill="#1D4ED8"/>
</svg>
